<svg width="72" height="73" viewBox="0 0 72 73" fill="none" xmlns="http://www.w3.org/2000/svg">
<circle cx="36" cy="36.4424" r="36" fill="#E3B873"/>
<path d="M36.3396 43.7206C35.9614 43.7206 35.6526 44.0199 35.6526 44.3917V45.7163C35.6526 46.0881 35.9614 46.3873 36.3396 46.3873C36.7178 46.3873 37.0265 46.0881 37.0265 45.7163V44.3917C37.0265 44.0199 36.7178 43.7206 36.3396 43.7206Z" fill="white" stroke="white" stroke-width="0.1"/>
<path d="M53.0581 34.4428L53.0581 34.4427C52.6069 32.2849 51.5951 30.2508 50.1321 28.5602C48.7237 26.9326 46.9214 25.6513 44.9118 24.8437C44.5828 23.5077 43.8927 22.13 42.5386 21.0926C41.2205 20.0829 39.8931 19.8882 39.8338 19.8799L39.8338 19.8799C39.6374 19.8526 39.4377 19.9096 39.2872 20.0369C39.1366 20.1642 39.0498 20.3492 39.0498 20.5442V23.8478H36.8254C36.236 21.9337 34.4142 20.5357 32.2634 20.5357C30.0652 20.5357 28.2096 21.9956 27.6632 23.9747C24.5152 24.4005 21.6197 25.8912 19.4692 28.2047L19.5017 28.2348L19.4692 28.2047C17.2 30.6462 15.95 33.807 15.95 37.1048C15.95 44.4944 19.8839 50.5047 21.0891 52.1702C21.4705 52.6973 22.0945 53.0115 22.7582 53.0115H25.4692C26.5961 53.0115 27.515 52.1174 27.515 51.0156V50.214C28.1849 50.3117 28.8649 50.3618 29.5457 50.3618H35.6528V51.0156C35.6528 52.1174 36.5717 53.0115 37.6986 53.0115H40.6765C41.634 53.0115 42.4756 52.3491 42.6767 51.4341L42.9969 49.9776C47.173 48.976 50.5324 46.1195 52.1959 42.4129H54.6837C55.4359 42.4129 56.05 41.816 56.05 41.0795V35.78C56.05 35.4234 55.9075 35.0882 55.6493 34.8365C55.3912 34.5849 55.0482 34.4465 54.6838 34.4465H54.6837H54.6837H54.6837H54.6836H54.6836H54.6836H54.6835L53.0592 34.4467C53.0587 34.4454 53.0584 34.4441 53.0581 34.4428ZM54.6762 41.0293H54.6761V41.0708H52.7111C53.0469 40.0272 53.2538 38.9313 53.3138 37.802C53.3337 37.4307 53.0411 37.1162 52.6633 37.0971C52.2857 37.0784 51.9615 37.3611 51.9418 37.7324C51.6746 42.755 48.1861 47.0486 43.3218 48.4988L44.1936 44.5325C44.2736 44.1689 44.0358 43.8128 43.6656 43.7355C43.2961 43.658 42.9301 43.8876 42.8503 44.2508L41.3334 51.1523C41.2678 51.4509 40.9919 51.6694 40.6765 51.6694H37.6984C37.3268 51.6694 37.0266 51.3748 37.0266 51.0156V48.3658C37.0266 47.994 36.7178 47.6948 36.3396 47.6948C35.9614 47.6948 35.6527 47.994 35.6527 48.3658V49.0197H29.5455C28.8637 49.0197 28.1831 48.9637 27.5148 48.8549V44.3914C27.5148 44.0196 27.2061 43.7204 26.8279 43.7204C26.4497 43.7204 26.1409 44.0196 26.1409 44.3914V51.0156C26.1409 51.3749 25.8407 51.6695 25.4691 51.6695H22.7582C22.5355 51.6695 22.3366 51.5694 22.2111 51.3957L22.2111 51.3957C21.0641 49.8104 17.3239 44.0966 17.3239 37.1047C17.3239 34.1413 18.4469 31.301 20.4864 29.1068C22.3401 27.1124 24.8092 25.7982 27.5037 25.3561C27.5187 25.7441 27.5834 26.1276 27.695 26.4974H27.5074C27.1292 26.4974 26.8205 26.7966 26.8205 27.1684C26.8205 27.5402 27.1292 27.8395 27.5074 27.8395H37.0191C37.3974 27.8395 37.7061 27.5402 37.7061 27.1684C37.7061 26.7966 37.3974 26.4974 37.0191 26.4974H36.8315C36.9592 26.0749 37.0258 25.6344 37.0266 25.1897H39.0498V26.506C39.0498 26.8778 39.3585 27.177 39.7367 27.177C40.1149 27.177 40.4237 26.8778 40.4237 26.506V21.4319C41.0183 21.6611 41.843 22.1096 42.5288 22.9651C43.2404 23.8526 43.8056 25.182 43.8056 27.1685C43.8056 27.5403 44.1144 27.8395 44.4926 27.8395C44.8708 27.8395 45.1795 27.5403 45.1795 27.1685C45.1795 26.9306 45.1716 26.6808 45.1536 26.4229C46.6527 27.1478 47.9978 28.1728 49.0829 29.4267C50.3977 30.9462 51.3068 32.7736 51.712 34.7114C51.8426 35.3363 52.4049 35.7889 53.0487 35.7888L54.6762 35.7887V41.0293ZM32.2633 21.8778C34.1334 21.8778 35.6527 23.361 35.6527 25.1813C35.6527 25.6361 35.5552 26.0844 35.371 26.4975H29.1555C28.9714 26.0843 28.8737 25.6361 28.8737 25.1813C28.8737 23.3609 30.3931 21.8778 32.2633 21.8778Z" fill="white" stroke="white" stroke-width="0.1"/>
<path d="M43.9116 34.8828L43.9116 34.8828C44.315 33.8281 45.3808 33.1218 46.5621 33.1218C47.7433 33.1218 48.8093 33.8281 49.2125 34.8828L43.9116 34.8828ZM43.9116 34.8828C43.7784 35.2312 43.9605 35.6175 44.3155 35.7465M43.9116 34.8828L44.3155 35.7465M44.3155 35.7465C44.67 35.8755 45.0657 35.7001 45.1986 35.3524L44.3155 35.7465ZM45.1986 35.3524C45.4011 34.8229 45.9479 34.4638 46.562 34.4638C47.1761 34.4638 47.723 34.8229 47.9255 35.3524C48.0289 35.6229 48.2913 35.7888 48.5691 35.7888C48.6488 35.7888 48.7297 35.7752 48.8086 35.7465C48.8086 35.7465 48.8086 35.7465 48.8086 35.7465L48.7915 35.6995L45.1986 35.3524Z" fill="white" stroke="white" stroke-width="0.1"/>
<path d="M35.2116 37.5181C34.5601 37.0763 33.7201 36.8056 32.9502 36.5933V33.5143C33.5451 33.5915 34.0484 33.7638 34.4047 33.9765C34.7758 34.1982 34.9733 34.4545 34.9733 34.683C34.9733 35.0548 35.2821 35.354 35.6603 35.354C36.0385 35.354 36.3472 35.0548 36.3472 34.683C36.3472 34.0274 35.9732 33.4413 35.3589 32.9981C34.754 32.5617 33.9127 32.2606 32.9502 32.1628V32.1368C32.9502 31.765 32.6414 31.4657 32.2632 31.4657C31.885 31.4657 31.5763 31.765 31.5763 32.1368V32.1628C30.6138 32.2606 29.7724 32.5617 29.1676 32.9981C28.5533 33.4413 28.1792 34.0274 28.1792 34.683C28.1792 35.6105 28.6508 36.2414 29.3149 36.6918C29.9663 37.1336 30.8063 37.4043 31.5763 37.6166V40.6955C30.9814 40.6184 30.4781 40.4461 30.1218 40.2333C29.7506 40.0117 29.5532 39.7554 29.5532 39.5269C29.5532 39.1551 29.2444 38.8559 28.8662 38.8559C28.488 38.8559 28.1792 39.1551 28.1792 39.5269C28.1792 40.1825 28.5533 40.7686 29.1676 41.2118C29.7724 41.6482 30.6138 41.9492 31.5763 42.0471V42.0731C31.5763 42.4449 31.885 42.7441 32.2632 42.7441C32.6414 42.7441 32.9502 42.4449 32.9502 42.0731V42.0471C33.9127 41.9492 34.754 41.6482 35.3589 41.2118C35.9732 40.7686 36.3472 40.1825 36.3472 39.5269C36.3472 38.5993 35.8757 37.9684 35.2116 37.5181ZM31.5763 33.5143V36.2105C30.8286 35.9782 30.3248 35.757 30.0067 35.5156C29.6827 35.2699 29.5532 35.0051 29.5532 34.683C29.5532 34.4545 29.7506 34.1982 30.1218 33.9765C30.4781 33.7638 30.9814 33.5915 31.5763 33.5143ZM34.4047 40.2334C34.0484 40.4462 33.545 40.6185 32.9502 40.6956V37.9994C33.6979 38.2317 34.2016 38.4529 34.5198 38.6943C34.8437 38.94 34.9733 39.2049 34.9733 39.527C34.9733 39.7554 34.7758 40.0117 34.4047 40.2334Z" fill="white" stroke="white" stroke-width="0.1"/>
</svg>
